<svg id="Laag_1" data-name="Laag 1" xmlns="http://www.w3.org/2000/svg" viewBox="0 0 111.31 24.38"><defs><style>.cls-1{fill:#fff;}</style></defs><title>restocks-logo</title><path class="cls-1" d="M21.06,68.67a.43.43,0,0,1,.15-.34.49.49,0,0,1,.33-.14h1.7c.29,0,.45.11.47.34l.07.61c0,.16,0,.31,0,.46s0,.23,0,.26c0,.2.13.23.27.1a5,5,0,0,1,.56-.68,5,5,0,0,1,.85-.7,5.25,5.25,0,0,1,1.09-.53,4.19,4.19,0,0,1,1.31-.2,6.19,6.19,0,0,1,.93.07,3.74,3.74,0,0,1,.89.22,1.87,1.87,0,0,1,.61.37.4.4,0,0,1,.08.5l-1.25,2.24c-.14.23-.41.27-.82.14a2.31,2.31,0,0,0-1.51,0,2.67,2.67,0,0,0-1.11.75,3.54,3.54,0,0,0-.66,1.19,4.21,4.21,0,0,0-.22,1.33v9.11c0,.32-.22.47-.65.47H21.54a.52.52,0,0,1-.48-.47Z" transform="translate(-21.06 -60.13)"/><path class="cls-1" d="M37.92,68.09a8.35,8.35,0,0,1,3.11.59,7.23,7.23,0,0,1,2.57,1.74,7.55,7.55,0,0,1,1.68,2.84,10.69,10.69,0,0,1,.53,3.94.82.82,0,0,1-.1.48.55.55,0,0,1-.44.13c-2,0-3.72,0-5.31,0H33.88a.09.09,0,0,0-.07,0v0a3.78,3.78,0,0,0,.25.65,4.07,4.07,0,0,0,.7,1,5.27,5.27,0,0,0,1.26,1,5.08,5.08,0,0,0,2,.6,6.29,6.29,0,0,0,1.84,0,7.48,7.48,0,0,0,1.44-.4,4.55,4.55,0,0,0,1.09-.61,6.86,6.86,0,0,0,.77-.69.21.21,0,0,1,.3,0L45.27,81a.41.41,0,0,1,.13.24.33.33,0,0,1-.06.21c-.19.2-.46.48-.84.85a7.15,7.15,0,0,1-1.46,1,9.63,9.63,0,0,1-5,1.19,7.76,7.76,0,0,1-3.11-.7,8.45,8.45,0,0,1-2.57-1.76,8.58,8.58,0,0,1-1.73-2.59,7.83,7.83,0,0,1-.65-3.18,8.11,8.11,0,0,1,.63-3.19,8,8,0,0,1,1.72-2.6,8.18,8.18,0,0,1,2.55-1.76A7.57,7.57,0,0,1,37.92,68.09Zm4.25,6.42a.11.11,0,0,0,0-.1c-.12-.27-.27-.58-.46-.93a4.19,4.19,0,0,0-.78-1,4.63,4.63,0,0,0-1.23-.78A4.24,4.24,0,0,0,38,71.39a3.72,3.72,0,0,0-1.78.39,4.18,4.18,0,0,0-1.19.9,3.56,3.56,0,0,0-.68,1c-.15.34-.25.58-.29.71v.1a.08.08,0,0,0,.07,0h8C42.14,74.55,42.17,74.54,42.17,74.51Z" transform="translate(-21.06 -60.13)"/><path class="cls-1" d="M54.07,74.24c1,.16,1.84.34,2.66.55a7.4,7.4,0,0,1,2.12.85A4,4,0,0,1,60.26,77a4,4,0,0,1,.51,2.11,4.53,4.53,0,0,1-.49,2.09,4.72,4.72,0,0,1-1.4,1.65A7.09,7.09,0,0,1,56.73,84a9.41,9.41,0,0,1-2.79.39,8.1,8.1,0,0,1-2.16-.29,6.71,6.71,0,0,1-1.91-.85,5.92,5.92,0,0,1-1.49-1.38,6.17,6.17,0,0,1-1-1.83.63.63,0,0,1,.1-.75.74.74,0,0,1,.65-.31h2.41a.89.89,0,0,1,.68.31,3,3,0,0,0,1.36,1.16,4.24,4.24,0,0,0,1.53.3,4.56,4.56,0,0,0,1.92-.34,1.05,1.05,0,0,0,.73-1,1.07,1.07,0,0,0-.63-1.06,3.92,3.92,0,0,0-1-.35c-.43-.11-1-.21-1.63-.33s-1.2-.22-1.91-.39a8,8,0,0,1-2-.76,4.72,4.72,0,0,1-1.53-1.35A3.46,3.46,0,0,1,47.51,73a4.42,4.42,0,0,1,.41-1.82,5,5,0,0,1,1.19-1.62A6.06,6.06,0,0,1,51,68.43,7.16,7.16,0,0,1,53.67,68a7.45,7.45,0,0,1,4,1,6,6,0,0,1,2.41,2.81.8.8,0,0,1-.13.71.5.5,0,0,1-.28.27.87.87,0,0,1-.41.11H56.83a.77.77,0,0,1-.39-.11,1.14,1.14,0,0,1-.36-.27,1.91,1.91,0,0,0-.95-.66,4.68,4.68,0,0,0-1.46-.29,3.86,3.86,0,0,0-1.09.07A1.54,1.54,0,0,0,52,72a.92.92,0,0,0-.29.46,1.66,1.66,0,0,0-.07.46.85.85,0,0,0,.49.82A10,10,0,0,0,54.07,74.24Z" transform="translate(-21.06 -60.13)"/><path class="cls-1" d="M73.18,82.4q.07.18,0,.27a.73.73,0,0,1-.24.21l-.46.29a7.22,7.22,0,0,1-1,.53,11.5,11.5,0,0,1-1.58.49,8,8,0,0,1-2.08.18,4.46,4.46,0,0,1-3.06-1.08,4.2,4.2,0,0,1-1-3.13V72.44a.32.32,0,0,0-.37-.37H61.35a.72.72,0,0,1-.51-.24.82.82,0,0,1-.24-.61V69.07a.84.84,0,0,1,.24-.61.72.72,0,0,1,.51-.24h1.94a.32.32,0,0,0,.37-.37V63.16a.78.78,0,0,1,.24-.58.75.75,0,0,1,.54-.24h2.28a.82.82,0,0,1,.63.24.81.81,0,0,1,.22.58v4.69c0,.25.14.37.41.37h3.77a.78.78,0,0,1,.58.24.84.84,0,0,1,.24.61v2.15a.82.82,0,0,1-.24.61.78.78,0,0,1-.58.24H68a.43.43,0,0,0-.27.1.33.33,0,0,0-.14.27l0,7a1.57,1.57,0,0,0,.47,1.34,1.29,1.29,0,0,0,1.09.15,6.2,6.2,0,0,0,1.28-.44l.9-.44a1.1,1.1,0,0,1,.64-.14.4.4,0,0,1,.38.31Z" transform="translate(-21.06 -60.13)"/><path class="cls-1" d="M87.73,71.11a8.81,8.81,0,0,1,1.33,2.4,7.89,7.89,0,0,1,.47,2.74,8,8,0,0,1-.64,3.2,8.21,8.21,0,0,1-1.77,2.6,8.64,8.64,0,0,1-2.63,1.75,8.23,8.23,0,0,1-3.25.64,6.8,6.8,0,0,1-2.89-.64,8.07,8.07,0,0,1-2.45-1.75,8.68,8.68,0,0,1-1.68-2.6,8.59,8.59,0,0,1,.44-7.38,8.1,8.1,0,0,1,2.75-2.88A7.72,7.72,0,0,1,85.25,69c.23.11.28.26.17.44l-1.29,2.35a1,1,0,0,1-.46.39.59.59,0,0,1-.56,0,4.8,4.8,0,0,0-1.87-.34,3.57,3.57,0,0,0-1.57.34,4,4,0,0,0-1.24.93,4.27,4.27,0,0,0-.81,1.41,5,5,0,0,0-.29,1.74,4.55,4.55,0,0,0,1.1,3.14,3.59,3.59,0,0,0,2.81,1.24A4.77,4.77,0,0,0,83,80.31a4.13,4.13,0,0,0,1.45-.92,4.4,4.4,0,0,0,1-1.39,4.38,4.38,0,0,0,.17-3A6.15,6.15,0,0,0,85.15,74a.75.75,0,0,1,.24-1l2-1.83C87.54,71,87.64,71,87.73,71.11Z" transform="translate(-21.06 -60.13)"/><path class="cls-1" d="M102.25,82.67a.51.51,0,0,1,.09.53.84.84,0,0,1-.4.39,9.68,9.68,0,0,1-1.61.6,7.88,7.88,0,0,1-2.13.25,6.83,6.83,0,0,1-2.89-.64,8,8,0,0,1-2.44-1.75,8.52,8.52,0,0,1-1.69-2.6,8.19,8.19,0,0,1-.63-3.2v-.07a8.19,8.19,0,0,1,.63-3.2,8.52,8.52,0,0,1,1.69-2.6,8,8,0,0,1,2.44-1.75A6.83,6.83,0,0,1,98.2,68a8.75,8.75,0,0,1,3.74.85,3,3,0,0,1,.33.29.41.41,0,0,1,0,.45l-1.23,2.25a.93.93,0,0,1-.46.39.59.59,0,0,1-.56,0,4.73,4.73,0,0,0-1.87-.34,3.49,3.49,0,0,0-1.53.34,4,4,0,0,0-1.24.93,4.56,4.56,0,0,0-.83,1.4,4.81,4.81,0,0,0-.31,1.71A5,5,0,0,0,94.6,78a4.18,4.18,0,0,0,.83,1.39,4,4,0,0,0,1.24.92,3.49,3.49,0,0,0,1.53.34,4.73,4.73,0,0,0,1.87-.34.59.59,0,0,1,.56-.05.93.93,0,0,1,.46.39Z" transform="translate(-21.06 -60.13)"/><path class="cls-1" d="M119.4,68.41a.56.56,0,0,1-.05.49L113,75.09a.31.31,0,0,0,0,.44l1.7,2.15c.59.74,1.16,1.48,1.7,2.19l1.53,2c.48.62.88,1.16,1.22,1.61a.59.59,0,0,1,.06.48.37.37,0,0,1-.4.23H115.2a.51.51,0,0,1-.47-.2l-6-8.09v7.82a.52.52,0,0,1-.47.47h-3a.49.49,0,0,1-.36-.15.45.45,0,0,1-.15-.32V60.64a.49.49,0,0,1,.15-.35.46.46,0,0,1,.36-.16h3a.43.43,0,0,1,.32.16.49.49,0,0,1,.15.35V74.72l6.36-6.19.34-.25a.69.69,0,0,1,.41-.12h3.2A.33.33,0,0,1,119.4,68.41Z" transform="translate(-21.06 -60.13)"/><path class="cls-1" d="M125.67,74.24c1,.16,1.84.34,2.66.55a7.4,7.4,0,0,1,2.12.85A4,4,0,0,1,131.86,77a4,4,0,0,1,.51,2.11,4.53,4.53,0,0,1-.49,2.09,4.69,4.69,0,0,1-1.39,1.65A7.15,7.15,0,0,1,128.33,84a9.41,9.41,0,0,1-2.79.39,8.1,8.1,0,0,1-2.16-.29,6.53,6.53,0,0,1-1.9-.85,5.8,5.8,0,0,1-1.5-1.38A6.17,6.17,0,0,1,119,80a.64.64,0,0,1,.1-.75.74.74,0,0,1,.65-.31h2.41a.87.87,0,0,1,.68.31,3,3,0,0,0,1.36,1.16,4.24,4.24,0,0,0,1.53.3,4.49,4.49,0,0,0,1.92-.34,1.06,1.06,0,0,0,.74-1,1.27,1.27,0,0,0-.14-.6,1.29,1.29,0,0,0-.49-.46,4.16,4.16,0,0,0-1-.35c-.43-.11-1-.21-1.63-.33s-1.2-.22-1.9-.39a7.89,7.89,0,0,1-2-.76,4.72,4.72,0,0,1-1.53-1.35,3.53,3.53,0,0,1-.61-2.12,4.42,4.42,0,0,1,.41-1.82,5,5,0,0,1,1.19-1.62,6.06,6.06,0,0,1,1.92-1.15,7.16,7.16,0,0,1,2.64-.44,7.45,7.45,0,0,1,4,1,6,6,0,0,1,2.41,2.81.77.77,0,0,1-.13.71.51.51,0,0,1-.27.27.93.93,0,0,1-.41.11h-2.45a.77.77,0,0,1-.39-.11,1.14,1.14,0,0,1-.36-.27,1.91,1.91,0,0,0-1-.66,4.62,4.62,0,0,0-1.46-.29,3.86,3.86,0,0,0-1.09.07,1.54,1.54,0,0,0-.63.3,1,1,0,0,0-.29.46,2.15,2.15,0,0,0-.07.46.84.84,0,0,0,.5.82A9.64,9.64,0,0,0,125.67,74.24Z" transform="translate(-21.06 -60.13)"/></svg>